/vscmnt/brussel_pixiu_data/_data_brussel/112/vsc11236/PredSimResults/SUBJ07mtu3D/weighted-LRposFixed/trackIG/worker_03.mot
version=1
nRows=11
nColumns=50
inDegrees=yes
endheader
                time	         pelvis_tilt	         pelvis_list	     pelvis_rotation	           pelvis_tx	           pelvis_ty	           pelvis_tz	       hip_flexion_r	     hip_adduction_r	      hip_rotation_r	        knee_angle_r	       ankle_angle_r	         mtp_angle_r	       hip_flexion_l	     hip_adduction_l	      hip_rotation_l	        knee_angle_l	       ankle_angle_l	         mtp_angle_l	    lumbar_extension	      lumbar_bending	     lumbar_rotation	 ercspn_r/activation	 intobl_r/activation	 extobl_r/activation	    abd_r/activation	    add_r/activation	hamstrings_r/activation	bifemsh_r/activation	glut_max_r/activation	iliopsoas_r/activation	rect_fem_r/activation	  vasti_r/activation	gastroc_r/activation	 soleus_r/activation	tib_ant_r/activation	 ercspn_l/activation	 intobl_l/activation	 extobl_l/activation	    abd_l/activation	    add_l/activation	hamstrings_l/activation	bifemsh_l/activation	glut_max_l/activation	iliopsoas_l/activation	rect_fem_l/activation	  vasti_l/activation	gastroc_l/activation	 soleus_l/activation	tib_ant_l/activation	
          0.00000000	         -6.78443714	         -3.91351332	          9.70530229	          0.00000000	          0.84337830	         -0.01363298	         31.77040906	         -0.50626116	         -7.67446679	         -3.54227357	          7.64062699	          0.24901787	        -12.92661181	         -4.61490450	          5.41551298	         -6.55543754	          8.43852928	         28.08578270	         -6.35747819	          2.00717333	         -3.75728995	          0.10404021	          0.18628030	          0.02807817	          0.01187762	          0.13056113	          0.08828844	          0.20573952	          0.01000000	          0.09936746	          0.01000003	          0.01000000	          0.01910836	          0.01000000	          0.27523079	          0.03617604	          0.00999999	          0.01000000	          0.03419145	          0.05083176	          0.02931745	          0.14806568	          0.03274469	          0.41551688	          0.01000009	          0.01000037	          0.29395965	          0.27270876	          0.02078790	
          0.01126551	         -6.85307510	         -3.77417260	          9.62549808	          0.01648026	          0.84145649	         -0.01340332	         31.97600780	         -0.36194341	         -6.94603409	         -5.57245136	          7.30005462	          0.24642657	        -12.99640172	         -4.48307062	          4.91412567	         -8.43626972	          7.73646989	         29.87737840	         -6.16688423	          2.47061213	         -3.82076269	          0.08759374	          0.16248184	          0.02363963	          0.01000003	          0.19645483	          0.07475151	          0.17321663	          0.07873804	          0.08365964	          0.01000003	          0.01000000	          0.02363979	          0.01835439	          0.27812681	          0.09443482	          0.01000000	          0.01000004	          0.02878653	          0.10124918	          0.02468302	          0.12465975	          0.02756848	          0.43072135	          0.01000003	          0.01014861	          0.24749108	          0.25441358	          0.01750179	
          0.02253103	         -6.90378572	         -3.63611496	          9.48438580	          0.03327201	          0.83970932	         -0.01314313	         31.97580566	         -0.23118836	         -6.20672162	         -7.48558507	          6.93824902	          0.23441081	        -12.87966734	         -4.33187708	          4.35447573	        -10.73275217	          6.92227855	         31.60792434	         -5.95899273	          2.95788452	         -3.85588285	          0.07543883	          0.13679705	          0.01990272	          0.07251022	          0.19464060	          0.07227852	          0.14583491	          0.10279144	          0.07043489	          0.01000001	          0.00999999	          0.01990286	          0.01545296	          0.32824624	          0.12479486	          0.01000000	          0.01000001	          0.02423601	          0.09314656	          0.02078121	          0.10495378	          0.02321050	          0.41406906	          0.01000004	          0.01000001	          0.20836817	          0.22744490	          0.01473514	
          0.03379654	         -6.93913854	         -3.49589197	          9.28366473	          0.05015127	          0.83831460	         -0.01278092	         31.79114377	         -0.07534011	         -5.53423963	         -9.07734036	          6.48649629	          0.21871337	        -12.50366129	         -4.16563584	          3.75142584	        -13.52375601	          5.94230297	         33.17777429	         -5.75727843	          3.44880249	         -3.86515297	          0.08932347	          0.11517244	          0.01675654	          0.12373082	          0.20780615	          0.06186179	          0.12278162	          0.14721181	          0.05930068	          0.01000001	          0.00999999	          0.01675666	          0.01301019	          0.35186763	          0.15747572	          0.00999999	          0.01000000	          0.02040483	          0.10318087	          0.01749619	          0.08836290	          0.01954143	          0.39149427	          0.01000001	          0.01000000	          0.17542974	          0.19149085	          0.01240584	
          0.04506206	         -6.95935050	         -3.35892846	          9.02912989	          0.06690439	          0.83741518	         -0.01232154	         31.51706443	          0.10832716	         -4.93998916	        -10.53661007	          6.13538886	          0.20349874	        -11.82434319	         -3.99622186	          3.10412396	        -16.84049508	          4.79545526	         34.34687677	         -5.57947871	          3.94713061	         -3.84760343	          0.08804597	          0.09696621	          0.01410770	          0.15345117	          0.20751782	          0.05208282	          0.10337255	          0.17080190	          0.04992654	          0.01000001	          0.02100540	          0.01410780	          0.01095363	          0.36734427	          0.18726552	          0.00999999	          0.01000001	          0.01717928	          0.10866350	          0.01473045	          0.07439468	          0.01645236	          0.34767197	          0.01000000	          0.00999999	          0.14769814	          0.16122035	          0.01044475	
          0.05632757	         -6.96484883	         -3.22673229	          8.72343853	          0.08338788	          0.83711071	         -0.01178089	         31.20389552	          0.30920740	         -4.42410002	        -11.93602606	          5.90966604	          0.18991282	        -10.82956256	         -3.83625644	          2.40439145	        -20.66514330	          3.50269490	         34.80286962	         -5.43565882	          4.45210504	         -3.80184643	          0.07583322	          0.08163798	          0.01187758	          0.16599019	          0.18857850	          0.04922171	          0.08703163	          0.16785897	          0.04203425	          0.01000001	          0.09614597	          0.01187768	          0.01000002	          0.37586966	          0.21361474	          0.01000000	          0.01000000	          0.01446361	          0.12376911	          0.01240190	          0.06263453	          0.01385160	          0.29271266	          0.01000000	          0.00999999	          0.12435031	          0.13573495	          0.00999999	
          0.06759308	         -6.95850255	         -3.09017769	          8.36597088	          0.09953401	          0.83750670	         -0.01118346	         30.80900980	          0.51530275	         -3.97657016	        -13.17949647	          5.80627581	          0.17573163	         -9.54124758	         -3.68775433	          1.65926656	        -24.88872311	          1.91877211	         34.48676939	         -5.32885196	          4.95047349	         -3.72737030	          0.06384566	          0.06873281	          0.01000001	          0.16658589	          0.15876839	          0.04913302	          0.07327385	          0.14872130	          0.03538956	          0.01000001	          0.16865015	          0.01000009	          0.01000001	          0.37352375	          0.21662363	          0.00999999	          0.01000000	          0.01217723	          0.13870342	          0.01044145	          0.05282056	          0.01166197	          0.24644122	          0.01000000	          0.00999999	          0.10469325	          0.11427824	          0.00999999	
          0.07885860	         -6.94352732	         -2.93557396	          7.95542974	          0.11532274	          0.83863004	         -0.01056047	         30.27814054	          0.71489773	         -3.55962963	        -14.16987006	          5.85311850	          0.16449554	         -8.01022407	         -3.54524908	          0.88759752	        -29.33322210	         -0.10442952	         33.41937730	         -5.25974780	          5.42706455	         -3.62246846	          0.05375306	          0.05786766	          0.01000001	          0.16908526	          0.13367059	          0.04941864	          0.06169087	          0.12521174	          0.02979525	          0.01000001	          0.19906540	          0.01000119	          0.01062824	          0.35911586	          0.21369542	          0.01000000	          0.01000000	          0.01025228	          0.13901105	          0.01187758	          0.04447085	          0.00999999	          0.20748427	          0.01000000	          0.00999999	          0.08814355	          0.09621335	          0.01815950	
          0.09012411	         -6.92165046	         -2.75682980	          7.49833018	          0.13074248	          0.84038840	         -0.00994065	         29.60068930	          0.89963149	         -3.12924871	        -14.88612926	          6.03817527	          0.15929638	         -6.29387174	         -3.40626664	          0.11980205	        -33.87310967	         -2.28507507	         31.17820804	         -5.22828318	          5.87363821	         -3.48946355	          0.04525589	          0.04872005	          0.01000000	          0.17862667	          0.11254020	          0.04757304	          0.05193891	          0.10541855	          0.02508527	          0.01000000	          0.21578825	          0.01000002	          0.01000001	          0.34129684	          0.22855574	          0.04812333	          0.01425310	          0.00999999	          0.11703646	          0.01000002	          0.03744100	          0.00999999	          0.17468556	          0.01000003	          0.01000000	          0.07420999	          0.08100413	          0.12945693	
          0.10138963	         -6.89308973	         -2.55827189	          7.00525332	          0.14577038	          0.84258308	         -0.00933077	         28.79393159	          1.06885206	         -2.65936035	        -15.34815071	          6.31492605	          0.15974699	         -4.46507508	         -3.26039397	         -0.61191684	        -38.43550844	         -3.94000359	         27.51613587	         -5.23512227	          6.28269368	         -3.32777091	          0.03810193	          0.04101848	          0.01000000	          0.17029631	          0.09475007	          0.04603579	          0.04372851	          0.08875425	          0.02111984	          0.01000000	          0.21899308	          0.01000001	          0.01000001	          0.31571866	          0.24421283	          0.06040147	          0.04438955	          0.00999999	          0.09853556	          0.01000001	          0.05371281	          0.00999999	          0.14707161	          0.01000001	          0.00999999	          0.06247902	          0.06819916	          0.17714170	
          0.11265514	         -6.85817804	         -2.34092448	          6.47920083	          0.16042244	          0.84508812	         -0.00873609	         27.88649499	          1.21797025	         -2.14625516	        -15.60548325	          6.66244113	          0.16887126	         -2.62724758	         -3.07345193	         -1.30946556	        -42.72672295	         -4.26318792	         23.83865119	         -5.27743858	          6.64550258	         -3.14171283	          0.03207885	          0.03453436	          0.01000000	          0.15967638	          0.07977216	          0.04191606	          0.03681600	          0.07852148	          0.01778126	          0.01000000	          0.20637823	          0.01000001	          0.01000001	          0.28734467	          0.24206177	          0.05588271	          0.04703171	          0.00999999	          0.08295926	          0.01000000	          0.05876523	          0.00999999	          0.12382282	          0.01000005	          0.00999999	          0.05260246	          0.05741837	          0.20116044	
